<svg id="head" xmlns="http://www.w3.org/2000/svg" viewBox="0 0 715 715"><defs><style>.cls-13{fill:#ffe1d2}</style></defs><path d="M366.46 104.46a90.26 90.26 0 0 1 32.93-3.34c7.77 1.86 12.35 8.83 16.15 15.27 8.46-.79 15.75-7.52 24.38-6.39 9.17 4.27 16.23 12 22.22 20 5.8.1 11.62-.35 17.42.08 9.39 4.16 16.06 12.75 20.69 21.66 9.43 17.62 13.41 37.74 13.72 57.58a55.19 55.19 0 0 1 16.89 22.85c3.19 7.1 3.79 14.92 5 22.51 1 9.88-1.05 19.63-2.11 29.41a120.3 120.3 0 0 1-12.46 36.58c-1.53 2.59-3.29 5-4.93 7.55a28.47 28.47 0 0 0-3 6.21c-3.66 10.17-7.69 20.2-11.79 30.2-3.58 7.45-7.43 14.77-11.24 22.1a23.9 23.9 0 0 1-6.24 6.44c-.19-3-.32-6-.39-9 .95-27-.18-54.51-8.72-80.35-4-11.94-9.56-24-19.3-32.37-1.08 2.87-2.09 7.28-6.11 6.64-1.56-3.08-1.57-6.59-2.22-9.91a85.32 85.32 0 0 0-7-24.76c-1.24 6.3-1.75 12.82-4.34 18.77-3.56 9-10.35 17.11-19.65 20.41-6.54 2.39-15.12 2.36-19.68-3.71 4.1-.29 8.72.59 12.25-2.08 5.9-4.14 7.82-11.65 8.81-18.4 1.27-14.11 1.45-29.4-6.26-41.87-2.37-2.69-6.62-1.44-9.78-1.46-6.7 2-11.86 7.09-16.73 11.85-9 8.56-16.11 18.93-22.28 29.66-6 10.56-8.82 22.39-12.23 33.92-3.54-1.52-6-4.83-7.41-8.3-1.52-4.62-1.88-9.51-2.84-14.26-1-10.62 0-21.24 1.85-31.71a46.23 46.23 0 0 0-4.43 9.18c-3.13 9.38-5.76 19.13-5.47 29.1 0 4.59.05 9.18-.09 13.77-4.52-.22-7.73-3.6-10.61-6.68-7.27-7.3-10-18.08-9.64-28.13-.25-7.11 2.32-13.87 4-20.68a84 84 0 0 0-15.57 34.35c-1.35 7.09.22 14.27 2.23 21.07 1.2 4.3 4.06 7.81 6.07 11.73-5.56 1.91-11.41-1.32-15.34-5.12-6.95-8.43-8.06-19.78-9-30.24-.17-13.24 3.16-26.25 7.83-38.55 5.8-15.37 14.9-30 28.2-39.92 2.52-2.08 5.84-2.45 9-2.63-2.43 4.27-7.51 5.48-10.92 8.7a68.12 68.12 0 0 0-13.67 17.36c-9.71 16.91-15.65 36.35-14.9 56a65.88 65.88 0 0 0 5.2 23.58 16.35 16.35 0 0 0 5.85 7.73c1.47-2.07-.38-4.37-1.07-6.38a35 35 0 0 1-4.11-18c.6-12.4 6.35-23.83 12.88-34.13 7.71-12.54 17.89-23.69 30.35-31.63 7.26-4.51 14.4-9.92 23.09-11.21.11.7.32 2.12.43 2.83-8.1 2.62-16.76 4.77-23.28 10.59-7.89 6.87-16 14.39-19.49 24.56a55.33 55.33 0 0 0-1.69 29.77c1.67 7.09 3.76 14.67 9.59 19.54.45-6.81-.15-13.69 1-20.45A101.67 101.67 0 0 1 344 224c1.46-2.33 3.88-3.72 6.25-5-2.94 8.6-6 17.36-5.73 26.59 6.15-10.83 11.63-22.55 21.3-30.79a26.82 26.82 0 0 1 12.27-6.08c-3.63 4.55-9.2 7-12.75 11.6-5.23 6.62-10.52 13.38-13.75 21.25a67.29 67.29 0 0 0-4.91 30.63 33 33 0 0 0 2.22 8.67c6.2-24 19.58-46.38 38.69-62.33 5.47-4.36 12.09-9.14 19.5-7.72 5.26.85 9.17 5.15 11.07 9.92a71.61 71.61 0 0 1 4.32 39.62c-.95 5.46-3.87 10.23-6.09 15.22 1.13 1.14 2.37-.17 3.43-.73a31.18 31.18 0 0 0 12.73-18.39c3.71-12.35 3.27-25.66 0-38-1.54-5.78-5.26-10.62-7.19-16.25 2.09.87 4.47 1.6 5.77 3.63a47.11 47.11 0 0 1 7 15c1.73 6.1.75 13 4.46 18.45 3.8 5.74 5.56 12.45 8.69 18.53 1.85-8.58 1.38-17.42.95-26.12-.37-7.24-2.3-14.28-4.62-21.11l2.74-1.14c2.75 4.7 5.12 9.71 6 15.14 2.1 12.32 1.62 24.93.57 37.34 0 1.75-.32 3.77.95 5.21a112.47 112.47 0 0 0 11.31 11.69A133.54 133.54 0 0 0 454 203.09c-2.71-5.32-7.52-9.24-9.84-14.78a13.56 13.56 0 0 1 9.79 5.72c11.83 15.37 17.42 34.47 20.72 53.32.93 5.12.74 10.34 1.42 15.48.35 3.07 2.52 5.42 4.35 7.73 7 8.27 11 18.59 14.23 28.8a162.23 162.23 0 0 1 5.87 26.14c1.18 7.2.73 14.55 1.86 21.76 7.33-13.28 10-28.69 10.39-43.72l3.13.41c.46 3.47 1 6.93 1.62 10.38a62.55 62.55 0 0 0 5.55-14.23 132.1 132.1 0 0 0 6.4-44.6 58.22 58.22 0 0 0-10.78-35.21c-2.85-4.15-8.62-6.4-9-12-2.27-15.62-4.65-31.44-10.84-46.09-3.78-9.4-8.53-19-16.77-25.31-4.47-3.54-10.47-2.89-15.77-2.46 6 10.35 12.28 20.82 14.69 32.68.63 2.38-.17 4.74-.95 7-3.83-6.55-5.94-13.9-9.5-20.58A113.71 113.71 0 0 0 449 123c-3.17-3.18-6.2-6.69-10.23-8.79-1.66-1-3.55-.17-5.22.29-5 1.71-9.83 4-14.72 6 .07 1.74.13 3.48.19 5.22-7.84-3.33-10.3-12.12-16.18-17.56-3.53-3.41-8.81-3-13.34-3-9.14.48-18.46 1.52-26.91 5.27 4 3.3 8.67 5.89 12.27 9.7 2 2 2.4 4.88 3 7.5-6.13-3.58-10.83-9.31-17.54-11.94-12.59-5.23-26.65-4.9-40-3.61-29.81 3.38-57.89 17.2-80.18 37a153 153 0 0 0-36 45c-5.62 11.12-9.91 23-11.53 35.43a34.67 34.67 0 0 0 .56 10.7 80.58 80.58 0 0 0 6.68-10.46c2.75-5.12 1.62-11.33 4.42-16.44a167 167 0 0 1 34.93-48.17c10.05-10.81 22.14-19.53 34.73-27.16 10.06-5.07 20.3-11.35 31.92-11.43a33.72 33.72 0 0 1-6.42 3.85c-14.23 5.9-28 13.27-40 22.91a158.46 158.46 0 0 0-29.08 28c-8.56 10.46-16.39 21.67-21.94 34.05 2.9-2.83 6-5.7 10.25-6.19-2.85 5.42-7.32 9.69-10.86 14.62A82.23 82.23 0 0 0 191.9 268a104 104 0 0 0 11.57 54.56c3.24 6.76 6.23 13.65 9.75 20.29 2.78 5.5 5 11.35 9.1 16.09.39-6.12.24-12.27.59-18.39 0-2.15.42-4.58-1-6.41-2.23-3.16-4.94-6-6.41-9.67a101.94 101.94 0 0 1-8.4-41.92c0-8.37 0-16.79 1.66-25 1.19.52 2.39 1 3.58 1.58A99.68 99.68 0 0 1 225 221c10.77-17.89 24.25-34.31 40.44-47.55 10.57-8.78 21.87-16.9 34.49-22.48 2.33-1.21 5-1.11 7.52-.79-4.56 4.38-10.88 5.83-16.06 9.24-16.62 10.92-32.39 23.5-45 39-9 11.13-17.6 22.94-22.58 36.47-3.64 9.77-6.82 20.06-6.21 30.61.29 6.76 3.25 12.95 4.85 19.44-4.77-1.22-7.18-5.73-8.3-10.15-1.19-4.11-1.6-8.38-2.31-12.58-1.85 8-.64 16.27-.25 24.39.73 12.67 3.9 25 7.69 37.08a51.25 51.25 0 0 0 3.61 8.17c1.4-6.35 2.18-12.83 3.79-19.14a93.26 93.26 0 0 1 11.6-27.45c2.29-3.29 2.19-7.38 1.86-11.19-.93-11.1.85-22.28 4-32.92 4.22-14.5 10.37-29 21.08-40 3.25-3.53 8.25-4.28 12.07-6.94 3.4-2.93 5.8-6.81 9.16-9.78a225.15 225.15 0 0 1 28.07-21.94c14.6-9.44 29.36-19 45.64-25.29 9.21-3.19 19.61-6.35 29.11-2.44 7.5 2.77 11.9 10 14.9 17 2.56 6.66 3.57 14.18 1.79 21.16a16.76 16.76 0 0 1-2.83.12c-1-6.1-.22-12.56-2.8-18.34-2.36-5.49-5.32-11.23-10.54-14.51-5.38-3.31-12.07-2.83-18-1.53-13.45 3-25.46 10-37.32 16.73-14.29 8.75-28.49 17.85-41.14 28.88-10.72 9.61-20.69 21-24.9 35-3.12 10.39-3 22.19 2.35 31.85 2.62 4.88 7.45 7.86 11.67 11.2-1.34.28-2.66.57-4 .81-6.89-1.74-11.05-8-14-14-8.43 5.8-11.21 16.64-12.17 26.27a50.33 50.33 0 0 0 2.82 25.23c-1.47 1.58-2.82.1-3.78-1.13-3.34-4.44-7-8.71-9.19-13.88-7.89 13.84-12.08 29.55-13.38 45.37-1.22 6.41-.85 12.95-.9 19.44-.32 12.16 2 24.21 5 36-.35 1.24-.72 2.47-1.1 3.71-3.6-5.83-6.56-12-10.2-17.82-.22-.48-.67-1.46-.9-1.94a94.9 94.9 0 0 0-7.16-14.77q-6.71-13-13-26.24c-1.33-2.73-2.63-5.48-3.84-8.26a122.14 122.14 0 0 1-8.52-28.6c-.79-10.76-.3-21.54-.14-32.3-2.17-1.55-4.4-3.23-5.5-5.74-4.63-9.56-4.78-20.89-2-31 3.16-11.56 11.06-20.87 16.82-31.14 5.09-9.77 13-17.59 19.75-26.18 6-6.32 11.66-13 18-19.06 18.76-16.76 41.2-29.8 65.67-36 12.69-2.81 25.67-4.86 38.71-4.36 5.43.15 10.7 1.62 16.06 2.3 3.78-1.31 7.19-3.38 10.96-4.57zM263.71 208.68a120.58 120.58 0 0 0-17.78 47.2 60.77 60.77 0 0 0 0 24.73c2.24-8.92 3.3-18.39 8.28-26.34 2.05-3.61 5.65-5.86 8.3-8.94.34-4-.77-7.87-.77-11.83a47.76 47.76 0 0 1 4.43-21.29c1.53-3.22 3.61-6.23 4.31-9.77-3.18.73-5 3.72-6.77 6.24zm-76 6.1c-4 9.17-6.32 19.57-4 29.49 1 4.39 1.92 9.11 5.27 12.38.95-3.32 2.3-6.66 2.18-10.16-.81-4.34-3-8.43-2.84-12.94-.47-8.64 2.45-16.85 4-25.21a17.66 17.66 0 0 0-4.58 6.44zm285.7 71.62c.92 3.79 3 7.14 4.45 10.73 8 18.71 10 39.24 11.37 59.35.4 6.11-.28 12.23.33 18.33a45.29 45.29 0 0 0 7.55-14.47c.82-6.28-.48-12.59-.71-18.87a222.93 222.93 0 0 0-11.84-54.09c-2.2-5.44-4.28-11.08-8.14-15.6-1.68 4.67-3.3 9.59-2.98 14.62z" style="fill:#040303"/><path d="M423.34 134.6c-.56-2-1.34-5.5 1.88-4.85 6.16 8.52 6.93 19.56 6.57 29.74.1 8.43-2.18 16.64-4.83 24.57a50.85 50.85 0 0 1-6.61 12.27l-1.66-.88c2.52-9.56 5.68-19 7.07-28.83a72 72 0 0 0-2.42-32.02zm17.97.68C451.58 144 461.74 153.94 466 167a33.46 33.46 0 0 1 2.08 18.71c-2.54-4.2-3.62-9-5.4-13.53-4.4-10.25-10-20.11-17.64-28.3-2.04-2.41-5.52-4.98-3.73-8.6z" style="fill:#030303"/><path d="M414.46 204.33c4.19 1.65 6.64 5.58 8.92 9.23a57.27 57.27 0 0 1 7.95 26.94c.25 1.82-1 3.28-1.79 4.78-2.88-10.49-4-21.71-9.64-31.28-2.01-3.11-4.35-6.07-5.44-9.67z" style="fill:#070707"/><path d="M490.43 204.19c1.77.49 3.78.89 4.72 2.68a84.06 84.06 0 0 1 13 57.24c-1 5.59-1.92 11.89-6.39 15.88-.4-8.25 2.36-16.22 2.48-24.44a88.94 88.94 0 0 0-6.24-34.62c-2.07-5.79-6.16-10.68-7.57-16.74zm26.19 31.12c2 .42 4 1.33 4.48 3.54 4.28 11.47 6.06 24.12 4.09 36.26-.75 4.7-.74 10-4.25 13.64-1-9.05 1.3-18.09.25-27.15-.47-8.94-2.78-17.6-4.57-26.29z" style="fill:#040404"/><path d="M414.46 204.33c1.09 3.6 3.43 6.56 5.44 9.67 5.61 9.57 6.76 20.79 9.64 31.28.81-1.5 2-3 1.79-4.78a57.27 57.27 0 0 0-7.95-26.94c-2.28-3.65-4.73-7.56-8.92-9.23zm26.85-69.05c-1.79 3.62 1.64 6.19 3.76 8.64 7.65 8.19 13.24 18.05 17.64 28.3 1.78 4.52 2.86 9.33 5.4 13.53A33.46 33.46 0 0 0 466 167c-4.26-13.06-14.42-23-24.69-31.72zm-17.97-.68a72 72 0 0 1 2.42 32c-1.39 9.83-4.55 19.27-7.07 28.83l1.66.88a50.85 50.85 0 0 0 6.65-12.25c2.65-7.93 4.93-16.14 4.83-24.57.36-10.18-.41-21.22-6.57-29.74-3.26-.65-2.48 2.89-1.92 4.85zm93.28 100.71c1.79 8.71 4.1 17.35 4.57 26.29 1 9.06-1.28 18.1-.25 27.15 3.51-3.65 3.5-8.94 4.25-13.64 2-12.14.19-24.79-4.09-36.26-.51-2.21-2.45-3.12-4.48-3.54zm-26.19-31.12c1.41 6.06 5.5 10.95 7.6 16.74a88.94 88.94 0 0 1 6.16 34.62c-.12 8.22-2.88 16.19-2.48 24.44 4.47-4 5.38-10.29 6.39-15.88a84.06 84.06 0 0 0-13-57.24c-.89-1.79-2.9-2.19-4.67-2.68z" style="stroke:#232323;stroke-miterlimit:10;fill:none"/><path d="M529.48 255.5a58.22 58.22 0 0 0-10.78-35.21c-2.85-4.15-8.62-6.4-9-12-2.27-15.62-4.65-31.44-10.84-46.09-3.78-9.4-8.53-19-16.77-25.31-4.47-3.54-10.47-2.89-15.77-2.46 6 10.35 12.28 20.82 14.69 32.68.63 2.38-.17 4.74-.95 7-3.83-6.55-5.94-13.9-9.5-20.58A113.71 113.71 0 0 0 449 123c-3.17-3.18-6.2-6.69-10.23-8.79-1.66-1-3.55-.17-5.22.29-5 1.71-9.83 4-14.72 6 .07 1.74.13 3.48.19 5.22-7.84-3.33-10.3-12.12-16.18-17.56-3.53-3.41-8.81-3-13.34-3-9.14.48-18.46 1.52-26.91 5.27 4 3.3 8.67 5.89 12.27 9.7 2 2 2.4 4.88 3 7.5-6.13-3.58-10.83-9.31-17.54-11.94-12.59-5.23-26.65-4.9-40-3.61-29.81 3.38-57.89 17.2-80.18 37a153 153 0 0 0-36 45c-5.62 11.12-9.91 23-11.53 35.43a34.67 34.67 0 0 0 .56 10.7 80.58 80.58 0 0 0 6.68-10.46c2.75-5.12 1.62-11.33 4.42-16.44a167 167 0 0 1 34.93-48.17c10.05-10.81 22.14-19.53 34.73-27.16 10.06-5.07 20.3-11.35 31.92-11.43a33.72 33.72 0 0 1-6.42 3.85c-14.23 5.9-28 13.27-40 22.91a158.46 158.46 0 0 0-29.08 28c-8.56 10.46-16.39 21.67-21.94 34.05 2.9-2.83 6-5.7 10.25-6.19-2.85 5.42-7.32 9.69-10.86 14.62A82.23 82.23 0 0 0 191.9 268a104 104 0 0 0 11.57 54.56c3.24 6.76 6.23 13.65 9.75 20.29 2.78 5.5 5 11.35 9.1 16.09.39-6.12.24-12.27.59-18.39 0-2.15.42-4.58-1-6.41-2.23-3.16-4.94-6-6.41-9.67a101.94 101.94 0 0 1-8.4-41.92c0-8.37 0-16.79 1.66-25 1.19.52 2.39 1 3.58 1.58A99.68 99.68 0 0 1 225 221c10.77-17.89 24.25-34.31 40.44-47.55 10.57-8.78 21.87-16.9 34.49-22.48 2.33-1.21 5-1.11 7.52-.79-4.56 4.38-10.88 5.83-16.06 9.24-16.62 10.92-32.39 23.5-45 39-9 11.13-17.6 22.94-22.58 36.47-3.64 9.77-6.82 20.06-6.21 30.61.29 6.76 3.25 12.95 4.85 19.44-4.77-1.22-7.18-5.73-8.3-10.15-1.19-4.11-1.6-8.38-2.31-12.58-1.85 8-.64 16.27-.25 24.39.73 12.67 3.9 25 7.69 37.08a51.25 51.25 0 0 0 3.61 8.17c1.4-6.35 2.18-12.83 3.79-19.14a93.26 93.26 0 0 1 11.6-27.45c2.29-3.29 2.19-7.38 1.86-11.19-.93-11.1.85-22.28 4-32.92 4.22-14.5 10.37-29 21.08-40 3.25-3.53 8.25-4.28 12.07-6.94 3.4-2.93 5.8-6.81 9.16-9.78a225.15 225.15 0 0 1 28.07-21.94c14.6-9.44 29.36-19 45.64-25.29 9.21-3.19 19.61-6.35 29.11-2.44 7.5 2.77 11.9 10 14.9 17 2.56 6.66 3.57 14.18 1.79 21.16a16.76 16.76 0 0 1-2.83.12c-1-6.1-.22-12.56-2.8-18.34-2.36-5.49-5.32-11.23-10.54-14.51-5.38-3.31-12.07-2.83-18-1.53-13.45 3-25.46 10-37.32 16.73-14.29 8.75-28.49 17.85-41.14 28.88-10.72 9.61-20.69 21-24.9 35-3.12 10.39-3 22.19 2.35 31.85 2.62 4.88 7.45 7.86 11.67 11.2-1.34.28-2.66.57-4 .81 1.86.53 3.76.94 5.66 1.36-.17-13.24 3.16-26.25 7.83-38.55 5.8-15.37 14.9-30 28.2-39.92 2.52-2.08 5.84-2.45 9-2.63-2.43 4.27-7.51 5.48-10.92 8.7a68.12 68.12 0 0 0-13.67 17.36c-9.71 16.91-15.65 36.35-14.9 56a65.88 65.88 0 0 0 5.2 23.58 16.35 16.35 0 0 0 5.85 7.73c1.47-2.07-.38-4.37-1.07-6.38a35 35 0 0 1-4.11-18c.6-12.4 6.35-23.83 12.88-34.13 7.71-12.54 17.89-23.69 30.35-31.63 7.26-4.51 14.4-9.92 23.09-11.21.11.7.32 2.12.43 2.83-8.1 2.62-16.76 4.77-23.28 10.59-7.89 6.87-16 14.39-19.49 24.56a55.33 55.33 0 0 0-1.69 29.77c1.67 7.09 3.76 14.67 9.59 19.54.45-6.81-.15-13.69 1-20.45A101.67 101.67 0 0 1 344 224c1.46-2.33 3.88-3.72 6.25-5-2.94 8.6-6 17.36-5.73 26.59 6.15-10.83 11.63-22.55 21.3-30.79a26.82 26.82 0 0 1 12.27-6.08c-3.63 4.55-9.2 7-12.75 11.6-5.23 6.62-10.52 13.38-13.75 21.25a67.29 67.29 0 0 0-4.91 30.63 33 33 0 0 0 2.22 8.67c6.2-24 19.58-46.38 38.69-62.33 5.47-4.36 12.09-9.14 19.5-7.72 5.26.85 9.17 5.15 11.07 9.92a71.61 71.61 0 0 1 4.32 39.62c-.95 5.46-3.87 10.23-6.09 15.22 1.13 1.14 2.37-.17 3.43-.73a31.18 31.18 0 0 0 12.73-18.39c3.71-12.35 3.27-25.66 0-38-1.54-5.78-5.26-10.62-7.19-16.25 2.09.87 4.47 1.6 5.77 3.63a47.11 47.11 0 0 1 7 15c1.73 6.1.75 13 4.46 18.45 3.8 5.74 5.56 12.45 8.69 18.53 1.85-8.58 1.38-17.42.95-26.12-.37-7.24-2.3-14.28-4.62-21.11l2.74-1.14c2.75 4.7 5.12 9.71 6 15.14 2.1 12.32 1.62 24.93.57 37.34 0 1.75-.32 3.77.95 5.21a112.47 112.47 0 0 0 11.31 11.69A133.54 133.54 0 0 0 454 203.09c-2.71-5.32-7.52-9.24-9.84-14.78a13.56 13.56 0 0 1 9.79 5.72c11.83 15.37 17.42 34.47 20.72 53.32.93 5.12.74 10.34 1.42 15.48.35 3.07 2.52 5.42 4.35 7.73 7 8.27 11 18.59 14.23 28.8a162.23 162.23 0 0 1 5.87 26.14c1.18 7.2.73 14.55 1.86 21.76 7.33-13.28 10-28.69 10.39-43.72l3.13.41c.46 3.47 1 6.93 1.62 10.38a62.55 62.55 0 0 0 5.55-14.23 132.1 132.1 0 0 0 6.39-44.6zm-98.15-15c.25 1.82-1 3.28-1.79 4.78-2.88-10.49-4-21.71-9.64-31.28-2-3.11-4.35-6.07-5.44-9.67 4.19 1.65 6.64 5.58 8.92 9.23a57.27 57.27 0 0 1 7.95 26.94zm.46-81c.1 8.43-2.18 16.64-4.83 24.57a50.85 50.85 0 0 1-6.61 12.27l-1.66-.88c2.52-9.56 5.68-19 7.07-28.83a72 72 0 0 0-2.42-32c-.56-2-1.34-5.5 1.88-4.85 6.16 8.49 6.93 19.53 6.57 29.71zm36.32 26.26c-2.54-4.2-3.62-9-5.4-13.53-4.4-10.25-10-20.11-17.64-28.3-2.12-2.45-5.55-5-3.76-8.64C451.58 144 461.74 153.94 466 167a33.46 33.46 0 0 1 2.11 18.75zm40 78.36c-1 5.59-1.92 11.89-6.39 15.88-.4-8.25 2.36-16.22 2.48-24.44a88.94 88.94 0 0 0-6.2-34.63c-2.1-5.79-6.19-10.68-7.6-16.74 1.77.49 3.78.89 4.72 2.68a84.06 84.06 0 0 1 12.98 57.24zm17.09 11c-.75 4.7-.74 10-4.25 13.64-1-9.05 1.3-18.09.25-27.15-.47-8.94-2.78-17.58-4.57-26.29 2 .42 4 1.33 4.48 3.54 4.27 11.46 6.05 24.14 4.08 36.25z" style="fill:#232323;stroke-miterlimit:10;stroke:#232323"/><path d="M270.53 202.44c-3.23.73-5 3.72-6.82 6.24a120.58 120.58 0 0 0-17.78 47.2 60.77 60.77 0 0 0 0 24.73c2.24-8.92 3.3-18.39 8.28-26.34 2.05-3.61 5.65-5.86 8.3-8.94.34-4-.77-7.87-.77-11.83a47.76 47.76 0 0 1 4.43-21.29c1.58-3.21 3.66-6.21 4.36-9.77zm214.06 84.94c-2.2-5.44-4.28-11.08-8.14-15.6-1.71 4.67-3.33 9.59-3 14.62.92 3.79 3 7.14 4.45 10.73 8 18.71 10 39.24 11.37 59.35.4 6.11-.28 12.23.33 18.33a45.29 45.29 0 0 0 7.55-14.47c.82-6.28-.48-12.59-.71-18.87a222.93 222.93 0 0 0-11.85-54.09z" style="fill:#222;stroke:#232323;stroke-miterlimit:10"/><path d="M192.38 208.34a17.66 17.66 0 0 0-4.64 6.44c-4 9.17-6.32 19.57-4 29.49 1 4.39 1.92 9.11 5.27 12.38.95-3.32 2.3-6.66 2.18-10.16-.81-4.34-3-8.43-2.84-12.94-.46-8.64 2.46-16.85 4.03-25.21z" style="fill:#212121;stroke-miterlimit:10;stroke:#232323"/><path d="M293.48 321.83c8.85.41 16.35 6.13 25 7.17 3.07-1.17 8.25-3 7.64-7.11-5-3-10.64-4.67-15.93-7-13-5.72-28.25-5.12-41.26.27a85.14 85.14 0 0 0-24.3 14.71c4.69 2 9.37-.71 13.79-2.17 11.29-3.83 23.15-6.26 35.06-5.87zm27.14 51.39c.27.33.83 1 1.11 1.31 2.34-4.34.42-9.51-1.89-13.44-5.62-7.5-15.34-10.54-24.32-11.18-9.88.23-20 3.47-27.35 10.21-3.33 3.29-7.28 7.15-7.23 12.16l2.48-1.81c1 1.29 1.83 2.94 3.46 3.58 4.93 2.13 10.35 2.62 15.6 3.41 2.88.33 6.14 1.21 8.59-.91a16.28 16.28 0 0 0 14.16-.09c5.11 1.69 12.12 1.84 15.39-3.24zm47.18 70.56c7.48-3.51 12-13.44 7.58-21h-2.8c-.76 4.34-.69 9.4-4.18 12.62-1.78 2.11-4.4 3.68-5.51 6.26-.77 2.93 3.11 2.9 4.91 2.12zm-28.57 55.9c1.14.87 2.11 2 3.51 2.52a35.91 35.91 0 0 0 26.26-1.46c1.65-.6 1.82-2.39 2.11-3.87-2.74.67-5.46 1.42-8.18 2.15-7.76 2.21-15.82.56-23.7.66zm-3.37-59.56c3.51 1.21 7.54 2.33 11.15.83 1.69-3.81-2.86-5.07-5.39-6.53-2.33-1.25-5.88-2.6-5.32-5.9 1.08-5.54 4.72-10.08 7-15.16 5.42-10.59 7.78-22.39 8.91-34.14a11.59 11.59 0 0 0-.26-4.07 18.78 18.78 0 0 0-3.73-.42c-1.92 9.23-3.51 18.6-7 27.4-2.81 7.74-7.26 14.71-10.83 22.09-3.03 5.59-.52 13.5 5.47 15.9zm50.25 37.11c-4.44 1.54-8.74 4-13.61 3.72-7.34-.3-14.64-1.44-22-1.07-6.27-.22-12.6 2-18.79.23-4.67-1.19-9.26-4.36-14.21-2.35 1.19 3.93 4.9 6.1 8.75 6.78 13.3 2.24 26.84 1.44 40.26 1.6 9.12.23 18-2.44 26.58-5.07 2-.4 2-2.65 2.46-4.17-3.15-.39-6.41-.77-9.44.33zM419.51 311c-7.79.48-15 3.92-22.15 6.69-3.49 1.5-7.24 2.8-9.86 5.7 2.73 2.16 5.43 5.07 9 5.57 8.59-1.4 16.15-6.84 25-7.15 13.33-.31 26.59 2.61 39 7.47 3.2 1.36 6.73 1 10.09.65-14.34-11.5-32.18-20.68-51.08-18.93zm25.55 48c-7.27-6.35-17.13-8.93-26.59-9-8.71.78-18 3.87-23.5 11.08-2.75 3.86-4.27 9.28-1.78 13.65l.49-1c3.94 4.21 10 3.93 15.32 3.62l-.77-1.68a15.69 15.69 0 0 0 15.21 1c1.63.75 3.34 1.54 5.19 1.24a110.33 110.33 0 0 0 14.9-2.39c2.4-.66 5.07-1.27 6.75-3.27a13.85 13.85 0 0 0-3.64-5.77 36.31 36.31 0 0 0 7.06 5.4c-.53-5.53-4.82-9.41-8.64-12.88z" style="fill:none"/><path d="M474.94 303.81c-4-11.94-9.56-24-19.3-32.37-1.08 2.87-2.09 7.28-6.11 6.64-1.56-3.08-1.57-6.59-2.22-9.91a85.32 85.32 0 0 0-7-24.76c-1.24 6.3-1.75 12.82-4.34 18.77-3.56 9-10.35 17.11-19.65 20.41-6.54 2.39-15.12 2.36-19.68-3.71 4.1-.29 8.72.59 12.25-2.08 5.9-4.14 7.82-11.65 8.81-18.4 1.27-14.11 1.45-29.4-6.26-41.87-2.37-2.69-6.62-1.44-9.78-1.46-6.7 2-11.86 7.09-16.73 11.85-9 8.56-16.11 18.93-22.28 29.66-6 10.56-8.82 22.39-12.23 33.92-3.54-1.52-6-4.83-7.41-8.3-1.52-4.62-1.88-9.51-2.84-14.26-1-10.62 0-21.24 1.85-31.71a46.23 46.23 0 0 0-4.43 9.18c-3.13 9.38-5.76 19.13-5.47 29.1 0 4.59.05 9.18-.09 13.77-4.52-.22-7.73-3.6-10.61-6.68-7.27-7.3-10-18.08-9.64-28.13-.25-7.11 2.32-13.87 4-20.68a84 84 0 0 0-15.57 34.35c-1.35 7.09.22 14.27 2.23 21.07 1.2 4.3 4.06 7.81 6.07 11.73-5.56 1.91-11.41-1.32-15.34-5.12-6.95-8.43-8.06-19.78-9-30.24-1.9-.42-3.8-.83-5.66-1.36-6.89-1.74-11.05-8-14-14-8.43 5.8-11.21 16.64-12.17 26.27a50.33 50.33 0 0 0 2.82 25.23c-1.47 1.58-2.82.1-3.78-1.13-3.34-4.44-7-8.71-9.19-13.88-7.89 13.84-12.08 29.55-13.38 45.37-1.22 6.41-.85 12.95-.9 19.44-.32 12.16 2 24.21 5 36 4.11 18.86 8.31 37.77 14.3 56.15a213.13 213.13 0 0 0 11.41 31c7.55 15.24 16.46 30.15 29 41.8 5.67 5.42 12.47 9.49 18 15.07a91.7 91.7 0 0 0 22.72 16.23c7.76 4.09 16.63 5.38 25.28 6a86.59 86.59 0 0 0 23.59-3.77c16-5.79 30.06-15.88 42.72-27.11 8.79-8.53 17.92-17 24.14-27.7 5-8.91 8.7-18.48 12.46-28 8.27-18.51 14.59-37.81 20.37-57.22 2.49-8.22 3.78-16.77 6.76-24.85.95-26.95-.18-54.47-8.72-80.31zm-112 137.86c1.11-2.58 3.73-4.15 5.51-6.26 3.49-3.22 3.42-8.28 4.18-12.62h2.8c4.43 7.52-.1 17.45-7.58 21-1.85.77-5.73.8-4.96-2.12zm-32.52-17.45c3.57-7.38 8-14.35 10.83-22.09 3.48-8.8 5.07-18.17 7-27.4a18.78 18.78 0 0 1 3.73.42 11.59 11.59 0 0 1 .26 4.07c-1.13 11.75-3.49 23.55-8.91 34.14-2.25 5.08-5.89 9.62-7 15.16-.56 3.3 3 4.65 5.32 5.9 2.53 1.46 7.08 2.72 5.39 6.53-3.61 1.5-7.64.38-11.15-.83-6.02-2.4-8.53-10.31-5.52-15.9zm-71.91-96.56c-4.42 1.46-9.1 4.16-13.79 2.17A85.14 85.14 0 0 1 269 315.12c13-5.39 28.26-6 41.26-.27 5.29 2.37 11 4 15.93 7 .61 4.08-4.57 5.94-7.64 7.11-8.69-1-16.19-6.76-25-7.17-11.98-.35-23.84 2.08-35.09 5.87zm46.77 48.8a16.28 16.28 0 0 1-14.16.09c-2.45 2.12-5.71 1.24-8.59.91-5.25-.79-10.67-1.28-15.6-3.41-1.63-.64-2.43-2.29-3.46-3.58l-2.48 1.81c-.05-5 3.9-8.87 7.23-12.16 7.39-6.74 17.47-10 27.35-10.21 9 .64 18.7 3.68 24.32 11.18 2.31 3.93 4.23 9.1 1.89 13.44-.28-.33-.84-1-1.11-1.31-3.32 5.08-10.33 4.93-15.44 3.24zM369 500.74a35.91 35.91 0 0 1-26.22 1.46c-1.4-.49-2.37-1.65-3.51-2.52 7.88-.1 15.94 1.55 23.66-.66 2.72-.73 5.44-1.48 8.18-2.15-.33 1.48-.5 3.27-2.11 3.87zm24.12-19.67c-8.62 2.63-17.46 5.3-26.58 5.07-13.42-.16-27 .64-40.26-1.6-3.85-.68-7.56-2.85-8.75-6.78 4.95-2 9.54 1.16 14.21 2.35 6.19 1.77 12.52-.45 18.79-.23 7.37-.37 14.67.77 22 1.07 4.87.31 9.17-2.18 13.61-3.72 3-1.1 6.29-.72 9.43-.33-.57 1.52-.52 3.77-2.49 4.17zm57.2-108.85c-1.68 2-4.35 2.61-6.75 3.27a110.33 110.33 0 0 1-14.9 2.39c-1.85.3-3.56-.49-5.19-1.24a15.69 15.69 0 0 1-15.21-1l.77 1.68c-5.28.31-11.38.59-15.32-3.62l-.49 1c-2.49-4.37-1-9.79 1.78-13.65 5.5-7.21 14.79-10.3 23.5-11.08 9.46.1 19.32 2.68 26.59 9 3.82 3.51 8.11 7.39 8.64 12.89a36.31 36.31 0 0 1-7.06-5.4 13.85 13.85 0 0 1 3.6 5.76zm10.2-42.93c-12.37-4.86-25.63-7.78-39-7.47-8.85.31-16.41 5.75-25 7.15-3.59-.5-6.29-3.41-9-5.57 2.62-2.9 6.37-4.2 9.86-5.7 7.19-2.77 14.36-6.21 22.15-6.69 18.9-1.76 36.74 7.42 51.06 18.93-3.38.38-6.91.71-10.11-.65zm3.81 269.56a137.24 137.24 0 0 1-15.39-9.85c-2.47 8 1.74 16.24-.87 24.17a15.24 15.24 0 0 1-5.75 8.27l-1.33.18c.11-28.29.22-56.59-.3-84.87a90.72 90.72 0 0 1-1.42-14.62c-8.06 11.63-15.08 24-24.33 34.79-5.06 6.25-11.49 11.14-17.39 16.54-12.84 10.9-27.15 19.85-41.55 28.54-23.64 12.59-47.84 24.15-72.57 34.44-2.51 1-4.24 3.11-6 5.07a103 103 0 0 0 25.21 14.79c6.93 2.79 14.26 4.32 21.42 6.39 10.65 2.73 21.28 6.47 32.4 6.48 10 .47 19.73-2.35 29.42-4.47 19-4.64 37.75-11.54 53.59-23.19 13.17-10 24.05-23.32 29.44-39.05-.91-1.82-2.91-2.58-4.58-3.61z" style="fill:#ffe2d3"/><path d="M269 315.12c13-5.39 28.26-6 41.26-.27 5.29 2.37 11 4 15.93 7 .61 4.08-4.57 5.94-7.64 7.11-8.69-1-16.19-6.76-25-7.17-11.91-.39-23.77 2-35 5.83-4.42 1.46-9.1 4.16-13.79 2.17A85.14 85.14 0 0 1 269 315.12zm128.36 2.58c7.19-2.77 14.36-6.21 22.15-6.69 18.9-1.76 36.74 7.42 51.06 18.93-3.36.38-6.89.71-10.09-.65-12.37-4.86-25.63-7.78-39-7.47-8.85.31-16.41 5.75-25 7.15-3.59-.5-6.29-3.41-9-5.57 2.64-2.9 6.39-4.2 9.88-5.7z" style="fill:#2f2823"/><path d="M441 621.66c.11-28.29.22-56.59-.3-84.87.22-8.68.9-17.49-1-26-6.08 5.6-12.08 11.28-18.79 16.13-10.12 9.31-20 19.38-32.45 25.56-15.6 8.22-34.05 8-51.05 5.45-6.19-.82-11.7-4-16.69-7.6A129.27 129.27 0 0 1 305 537c-7-7.14-15.72-12.28-23.33-18.71-2.48-2.1-5-4.15-7.57-6.1-.32 15.76.08 31.54-.78 47.29-.19 20.25-.23 40.51-.24 60.77l-2.29-.15c-2.21-3.9-4.41-8-4.65-12.57-.33-6.15.12-12.31 0-18.46a20.18 20.18 0 0 0 .91-6.72c-.23-25.3.36-50.61-.27-75.9a20 20 0 0 0-2.63-9.57 277.82 277.82 0 0 1-21.69-46.56 223.84 223.84 0 0 1-10.22-31.63c-2.94 1.83-5.93 4.6-9.65 4.12-4.93-1.07-9-4.73-11.37-9.08-3.49-6.31-5.06-13.42-7.59-20.13-3.12-7.69-9.4-13.39-14.18-20-7.6-9.58-9.9-22.17-10.37-34.08.2-6.25.4-13.83 5.6-18.16 4-.75 8-.22 12-.21 1.21 2.78 2.51 5.53 3.84 8.26a18.54 18.54 0 0 0-12.94-4.1c-2.65.24-3.31 3.27-3.82 5.4-1.61 8.56-.68 17.48 1.59 25.84 2.57 9.08 9.61 15.75 14.8 23.34A90.85 90.85 0 0 1 211 402.93c1.64 5.08 4.19 10.25 8.84 13.2a6.27 6.27 0 0 0 7.77-.44c2.06-1.74 1.64-4.71 1.52-7.1a46.76 46.76 0 0 0-3.46-13.16c-1.64-1.88-4.2-2.62-6.19-4.06-3.35-2.13-4.6-6.1-6.64-9.3-2.41-4.13-6.59-6.91-8.72-11.22-2.31-4.68-3.66-10.07-2.62-15.27.41-3.34 2.21-7 0-10.1a8.19 8.19 0 0 0-7.38-5c-.8 5-1.49 10-.67 15 1.05 7.79 5.63 14.49 10.52 20.4a41.78 41.78 0 0 1 5.85 8.75 18.66 18.66 0 0 1-8.72-5.89 55.22 55.22 0 0 1-11.67-27.33c-.72-5.08 1.13-10 2.87-14.64-2.44-1.58-4.86-3.2-7.19-4.93 2.93.09 6.08-.26 8.79 1.15a26.14 26.14 0 0 1 8.92 8c4 5.3 5.73 12 10.46 16.79 0-.56.1-1.68.13-2.24a94.9 94.9 0 0 1 7.16 14.77c-2.86-2.47-5.93-4.77-8.23-7.82a103.66 103.66 0 0 0-7.51-9.57c-.19 4-.37 8.22 1 12.09 2.45 7.21 7.78 12.86 11.74 19.23a12.74 12.74 0 0 0 6.79 5.34c.24-5.95-2.4-11.46-2.91-17.33 3.64 5.8 6.6 12 10.2 17.82.38-1.24.75-2.47 1.1-3.71 4.11 18.86 8.31 37.77 14.3 56.15a213.13 213.13 0 0 0 11.41 31c7.55 15.24 16.46 30.15 29 41.8 5.67 5.42 12.47 9.49 18 15.07a91.7 91.7 0 0 0 22.72 16.23c7.76 4.09 16.63 5.38 25.28 6a86.59 86.59 0 0 0 23.75-3.61c16-5.79 30.06-15.88 42.72-27.11 8.79-8.53 17.92-17 24.14-27.7 5-8.91 8.7-18.48 12.46-28 8.27-18.51 14.59-37.81 20.37-57.22 2.49-8.22 3.78-16.77 6.76-24.85.07 3 .2 6 .39 9a23.9 23.9 0 0 0 6.24-6.44l-.52 1.09c3.9 1.88 6.28-2.2 8.15-4.9 3.93-6.16 9.21-11.69 11.17-18.9 1.06-3.55.83-7.29.56-10.92a70.66 70.66 0 0 0-8.12 11.53c4.1-10 8.13-20 11.79-30.2-.1 1.38-.18 2.76-.23 4.15 4.31-3.31 9.24-8.16 15.15-5.65-1.91 1.29-3.84 2.56-5.77 3.82 4.67 10.66 2.53 22.88-2.9 32.82-3.45 6.27-7.78 13.29-15.2 15.17 3.59-6.07 8.94-10.9 12.28-17.13 4.9-8.21 6.32-18.69 2.75-27.67-3.66 2.33-8.42 5.86-7.2 10.84 1.36 6.37 1.81 13.32-1.14 19.33-2.19 5.16-7.47 8.07-9.86 13.09-1.61 2.94-2.81 6.31-5.53 8.43-2.41 1.72-5.56 1.39-8.34 1.75-2.07 6.84-5.52 14.77-1.21 21.48 1.33 3 5.15 2.82 7.78 1.93 5.28-2.86 7.91-8.68 9.7-14.13a98.59 98.59 0 0 1 9.4-20.54c4.58-7.66 11.59-13.74 15-22.09s3.3-17.56 3-26.41c-.44-2.52-.26-5.54-2.22-7.45-4.2-1.26-8.71.12-12.47 2.08 1.64-2.51 3.4-5 4.93-7.55 3.71.58 8.66-.59 11.09 3 3.16 5 2.72 11.17 2.83 16.82a56.58 56.58 0 0 1-2.5 18.78c-3.1 10.72-11.07 18.92-17.92 27.38-6.54 8.42-6.51 19.91-12.36 28.69-2.82 3.79-6.77 7.86-11.88 7.63-4.42-.29-7-4.34-9.52-7.48-3.9 13.21-9.36 25.88-13.48 39a204.85 204.85 0 0 1-17.57 40.25c-2.66 4.09-2.14 9.09-2.16 13.74 0 20-.07 40 .07 60a116.53 116.53 0 0 1-.33 13.86c-.95 2.41-.79 5 1.42 6.68-2.47 8 1.74 16.24-.87 24.17a15.24 15.24 0 0 1-5.75 8.27" style="fill:#ce5e4f"/><path class="cls-13" d="M183.75 330.7c.51-2.13 1.17-5.16 3.82-5.4a18.54 18.54 0 0 1 12.94 4.1q6.23 13.25 13 26.24c0 .56-.1 1.68-.13 2.24-4.73-4.78-6.49-11.49-10.46-16.79a26.14 26.14 0 0 0-8.92-8c-2.71-1.41-5.86-1.06-8.79-1.15 2.33 1.73 4.75 3.35 7.19 4.93-1.74 4.66-3.59 9.56-2.87 14.64a55.22 55.22 0 0 0 11.67 27.33 18.66 18.66 0 0 0 8.72 5.89 41.78 41.78 0 0 0-5.85-8.75c-4.89-5.91-9.47-12.61-10.52-20.4-.82-5-.13-10.08.67-15a8.19 8.19 0 0 1 7.38 5c2.19 3.09.39 6.76 0 10.1-1 5.2.31 10.59 2.62 15.27 2.13 4.31 6.31 7.09 8.72 11.22 2 3.2 3.29 7.17 6.64 9.3 2 1.44 4.55 2.18 6.19 4.06a46.76 46.76 0 0 1 3.46 13.16c.12 2.39.54 5.36-1.52 7.1a6.27 6.27 0 0 1-7.77.44c-4.65-2.95-7.2-8.12-8.84-13.2a90.85 90.85 0 0 0-10.9-23.05c-5.19-7.59-12.23-14.26-14.8-23.34-2.33-8.46-3.26-17.38-1.65-25.94zm344.49 2.21 2.77.66c.34 8.85.59 18.09-3 26.41s-10.45 14.43-15 22.09a98.59 98.59 0 0 0-9.42 20.57c-1.79 5.45-4.42 11.27-9.7 14.13-2.63.89-6.45 1.08-7.78-1.93-4.31-6.71-.86-14.64 1.21-21.48 2.78-.36 5.93 0 8.34-1.75 2.72-2.12 3.92-5.49 5.53-8.43 2.39-5 7.67-7.93 9.86-13.09 2.95-6 2.5-13 1.14-19.33-1.22-5 3.54-8.51 7.2-10.84 3.57 9 2.15 19.46-2.75 27.67-3.34 6.23-8.69 11.06-12.28 17.13 7.42-1.88 11.75-8.9 15.2-15.17 5.43-9.94 7.57-22.16 2.9-32.82 1.94-1.26 3.87-2.53 5.78-3.82z"/><path class="cls-13" d="M204.89 353a103.66 103.66 0 0 1 7.51 9.57c2.3 3.05 5.37 5.35 8.23 7.82.23.48.68 1.46.9 1.94.51 5.87 3.15 11.38 2.91 17.33a12.74 12.74 0 0 1-6.79-5.34c-4-6.37-9.29-12-11.74-19.23-1.39-3.85-1.21-8.03-1.02-12.09z"/><path d="M516.32 328.2c3.76-2 8.27-3.34 12.47-2.08 2 1.91 1.78 4.93 2.22 7.45l-2.77-.66c-5.91-2.51-10.84 2.34-15.15 5.65 0-1.39.13-2.77.23-4.15a28.47 28.47 0 0 1 3-6.21z" style="fill:#fedfd1"/><path d="M268.17 360.12c7.39-6.74 17.47-10 27.35-10.21 9 .64 18.7 3.68 24.32 11.18 2.31 3.93 4.23 9.1 1.89 13.44-.28-.33-.84-1-1.11-1.31-2-4.64-4.48-9.09-8.29-12.49-.87 5.75-2.17 12-7.1 15.73a16.28 16.28 0 0 1-14.16.09 17.41 17.41 0 0 1-6-7.89c-1.47-4-.91-8.31-1.05-12.46-8.12 2.68-14.58 8.47-20.64 14.27l-2.48 1.81c-.01-5.01 3.94-8.87 7.27-12.16zM395 361c5.5-7.21 14.79-10.3 23.5-11.08 9.46.1 19.32 2.68 26.59 9 3.82 3.51 8.11 7.39 8.64 12.89a36.31 36.31 0 0 1-7.06-5.4c-4.67-4.51-10.18-8.41-16.52-10.11-.12 4.31.64 8.81-.72 13-1.17 3-3.54 5.34-6 7.35a15.69 15.69 0 0 1-15.21-1c-2.37-3.05-4.44-6.44-4.91-10.34-.55-1.37-.06-3.47-1.54-4.25-3.69 3.51-6 8.11-8.1 12.65l-.49 1c-2.48-4.42-.96-9.84 1.82-13.71z" style="fill:#3f2c2d"/><path d="M501.53 364.61a70.66 70.66 0 0 1 8.12-11.53c.27 3.63.5 7.37-.56 10.92-2 7.21-7.24 12.74-11.17 18.9-1.87 2.7-4.25 6.78-8.15 4.9l.52-1.09c3.81-7.33 7.71-14.65 11.24-22.1z" style="fill:#fee0d1"/><path d="M263.42 370.47c6.06-5.8 12.52-11.59 20.64-14.27.14 4.15-.42 8.47 1.05 12.46a17.41 17.41 0 0 0 6 7.89c-2.45 2.12-5.71 1.24-8.59.91-5.25-.79-10.67-1.28-15.6-3.41-1.67-.64-2.47-2.29-3.5-3.58z" style="fill:#fffffe"/><path d="M430.15 356.3c6.34 1.73 11.84 5.6 16.49 10.15a13.85 13.85 0 0 1 3.64 5.77c-1.68 2-4.35 2.61-6.75 3.27a110.33 110.33 0 0 1-14.9 2.39c-1.85.3-3.56-.49-5.19-1.24 2.45-2 4.82-4.34 6-7.35 1.35-4.18.56-8.68.71-12.99z" style="fill:#fffefe"/><path d="M401.78 361c1.48.78 1 2.88 1.54 4.25.47 3.9 2.54 7.29 4.91 10.34l.77 1.68c-5.28.31-11.38.59-15.32-3.62 2.13-4.5 4.41-9.1 8.1-12.65zm-96.55 15.46c4.93-3.71 6.23-10 7.1-15.73 3.81 3.4 6.32 7.85 8.29 12.49-3.27 5.08-10.28 4.93-15.39 3.24z" style="fill:#fefdfd"/><path d="M348.19 374.73a18.78 18.78 0 0 1 3.73.42 11.59 11.59 0 0 1 .26 4.07c-1.13 11.75-3.49 23.55-8.91 34.14-2.25 5.08-5.89 9.62-7 15.16-.56 3.3 3 4.65 5.32 5.9 2.53 1.46 7.08 2.72 5.39 6.53-3.61 1.5-7.64.38-11.15-.83-6-2.4-8.5-10.31-5.49-15.9 3.57-7.38 8-14.35 10.83-22.09 3.51-8.8 5.1-18.13 7.02-27.4z" style="fill:#e38180"/><path d="M372.58 422.79h2.8c4.43 7.52-.1 17.45-7.58 21-1.77.78-5.68.81-4.91-2.11 1.11-2.58 3.73-4.15 5.51-6.26 3.49-3.23 3.42-8.29 4.18-12.63z" style="fill:#e38281"/><path d="M317.49 477.76c4.95-2 9.54 1.16 14.21 2.35 6.19 1.77 12.52-.45 18.79-.23 7.37-.37 14.67.77 22 1.07 4.87.31 9.17-2.18 13.61-3.72 3-1.1 6.29-.72 9.43-.33-.5 1.52-.49 3.77-2.46 4.17-8.62 2.63-17.46 5.3-26.58 5.07-13.42-.16-27 .64-40.26-1.6-3.84-.68-7.55-2.85-8.74-6.78z" style="fill:#ca755a"/><path d="M362.89 499c2.72-.73 5.44-1.48 8.18-2.15-.29 1.48-.46 3.27-2.11 3.87a35.91 35.91 0 0 1-26.22 1.46c-1.4-.49-2.37-1.65-3.51-2.52 7.88-.08 15.94 1.57 23.66-.66z" style="fill:#cd7c61"/><path d="M420.9 526.87c6.71-4.85 12.71-10.53 18.79-16.13 1.9 8.56 1.22 17.37 1 26a90.72 90.72 0 0 1-1.42-14.62c-8.06 11.63-15.08 24-24.33 34.79-5.06 6.25-11.49 11.14-17.39 16.54C384.71 584.36 370.4 593.31 356 602c-23.64 12.59-47.84 24.15-72.57 34.44-2.51 1-4.24 3.11-6 5.07-12.62-9.87-23.44-22.52-29.17-37.64a7.67 7.67 0 0 1-.27-3.71c1.86-1.65 4.23-2.52 6.42-3.63 4.17-2 7.78-4.91 11.65-7.4.14 6.15-.31 12.31 0 18.46.24 4.57 2.44 8.67 4.65 12.57l2.29.15c0-20.26.05-40.52.24-60.77.86-15.75.46-31.53.78-47.29 2.58 1.95 5.09 4 7.57 6.1C289.28 524.73 298 529.87 305 537a129.27 129.27 0 0 0 15.71 13.27c5 3.57 10.5 6.78 16.69 7.6 17 2.59 35.45 2.77 51.05-5.45 12.48-6.17 22.33-16.24 32.45-25.55z" style="fill:#ffcfbc"/><path d="M260.36 587.63c2.62-1.2 4.59-3.36 6.67-5.27a20.18 20.18 0 0 1-.91 6.72c-3.87 2.49-7.48 5.42-11.65 7.4-2.19 1.11-4.56 2-6.42 3.63a7.67 7.67 0 0 0 .27 3.71c5.73 15.12 16.55 27.77 29.17 37.64a103 103 0 0 0 25.21 14.79c6.93 2.79 14.26 4.32 21.42 6.39 10.65 2.73 21.28 6.47 32.4 6.48 10 .47 19.73-2.35 29.42-4.47 19-4.64 37.75-11.54 53.59-23.19 13.17-10 24.05-23.32 29.44-39.05-1-1.77-3-2.53-4.64-3.56a137.24 137.24 0 0 1-15.39-9.85c-2.21-1.65-2.37-4.27-1.42-6.68 2.65 2.76 5.66 6.2 9.91 5.74 6.23.48 12.74-3 18.71-.05 6.92 3.36 12.9 8.29 19 12.91 6.95 5.32 15.26 8.37 23.3 11.62 17 6.34 33.5 13.88 50.33 20.62 19.28 8 38.6 15.92 57.59 24.59 10.18 4.64 21.27 7.66 30.17 14.72 13.9 10.09 21.5 26.54 24.82 43h-4.72c-3.5-7.25-5.22-15.22-8.7-22.49a53.14 53.14 0 0 0-16.08-19.85c-7-5.06-15.48-7.32-23.25-10.87-16.18-6.28-32.24-12.89-48.28-19.51q-31.7-12.33-63.24-25c-6-2.55-12.22-4.78-18.06-7.76-8.81-4.53-15.35-12.49-24.36-16.69-3-1.55-6.47-1.19-9.71-.87 3.32 2.29 7.35 3.58 10.24 6.46-.25 4.86-3.35 9-5 13.45-3.31 8.66-9.19 15.8-15.19 22.71-14.68 16.25-35 26.31-55.8 32.23-11.66 3.59-23.81 5-35.81 6.93-6.52.93-13-.63-19.45-1.5-20.77-3.38-41.67-8.81-59.94-19.71a91.73 91.73 0 0 1-33.92-34c-3.48-7-7.19-14.09-8.62-21.86a57 57 0 0 0 8.47-4.63c-3.2-.24-6.77-1.07-9.65.84-9 5.53-17 12.9-26.71 17.26-18.62 9.11-38.21 16-57.51 23.48-17.74 6.53-34.91 14.48-52.53 21.33C94 659.08 84.41 662.77 75 667c-6.42 2.92-13.2 5.69-18.08 11C46.7 688.09 43 702.45 38 715.5h-5.18c4-15 9.51-30.65 21.77-40.94 7.08-6.06 16.23-8.64 24.44-12.74 21.43-9.8 43.23-18.76 65-27.75q26.47-11.1 53.09-21.85c6.11-2.51 12.56-4.42 18.12-8.11 8.19-5.38 15.13-12.86 24.45-16.38 6.75-2.66 13.85 2.01 20.67-.1z" style="fill:#020202"/><path d="M240.32 593.33c2.88-1.91 6.45-1.08 9.65-.84a57 57 0 0 1-8.47 4.63c1.43 7.77 5.14 14.85 8.62 21.86A91.73 91.73 0 0 0 284 653c18.23 10.93 39.13 16.36 59.94 19.74 6.44.87 12.93 2.43 19.45 1.5 12-1.93 24.15-3.34 35.81-6.93 20.82-5.92 41.12-16 55.8-32.23 5.93-6.91 11.84-14.1 15.18-22.68 1.62-4.48 4.72-8.59 5-13.45-2.89-2.88-6.92-4.17-10.24-6.46 3.24-.32 6.69-.68 9.71.87 9 4.2 15.55 12.16 24.36 16.69 5.84 3 12 5.21 18.06 7.76q31.54 12.68 63.24 25c16 6.62 32.1 13.23 48.28 19.51 7.77 3.55 16.25 5.81 23.25 10.87A53.14 53.14 0 0 1 667.93 693c3.48 7.27 5.2 15.24 8.7 22.49H38c5-13 8.73-27.41 19-37.54 4.88-5.31 11.66-8.08 18.08-11 9.37-4.19 18.95-7.88 28.53-11.56 17.62-6.85 34.79-14.8 52.53-21.33 19.3-7.51 38.89-14.37 57.51-23.48 9.71-4.35 17.62-11.72 26.67-17.25z" style="fill:#4d4d4d;stroke:#4d4d4d;stroke-miterlimit:10"/></svg>